<?xml version="1.0" encoding="utf-8"?>
<!-- Generator: Adobe Illustrator 24.0.1, SVG Export Plug-In . SVG Version: 6.00 Build 0)  -->
<svg version="1.1" xmlns="http://www.w3.org/2000/svg" xmlns:xlink="http://www.w3.org/1999/xlink" x="0px" y="0px"
	 viewBox="0 0 992 1000" style="enable-background:new 0 0 992 1000;" xml:space="preserve">
<style type="text/css">
	.st0{fill:none;}
	.st1{font-family:'OpenSans-Bold';}
	.st2{font-size:60px;}
	.st3{font-family:'OpenSans-Regular';}
	.st4{font-size:40px;}
	.st5{font-size:30px;}
	.st6{fill:#C6C6C5;}
	.st7{font-size:22px;}
</style>
<g id="_x39_92">
</g>
<g id="Ebene_2">
	<rect x="26.47" y="61.97" class="st0" width="938.95" height="75"/>
	<text transform="matrix(1 0 0 1 26.4683 107.5737)" class="st1 st2">Lorem ipsum dolor sit amet</text>
	<rect x="26.47" y="124.97" class="st0" width="938.95" height="75"/>
	<text transform="matrix(1 0 0 1 26.4683 155.3704)" class="st3 st4">Aenean commodo ligula eget dolor.</text>
	<rect x="28.47" y="212.47" class="st0" width="937.45" height="120.99"/>
	<text transform="matrix(1 0 0 1 28.4683 235.2661)"><tspan x="0" y="0" class="st3 st5">Lorem ipsum dolor sit amet, consectetuer adipiscing elit, sed diam </tspan><tspan x="0" y="40" class="st3 st5">nonummy nibh euismod tincidunt ut laoreet dolore magna ali</tspan><tspan x="862.41" y="40" class="st3 st5">-</tspan><tspan x="0" y="80" class="st3 st5">quam erat.</tspan></text>
	<rect x="28.47" y="799.43" class="st0" width="937.45" height="120.99"/>
	<text transform="matrix(1 0 0 1 28.4683 822.2339)"><tspan x="0" y="0" class="st3 st5">Vestibulum ante ipsum primis in faucibus orci luctus et ultrices po</tspan><tspan x="918.81" y="0" class="st3 st5">-</tspan><tspan x="0" y="40" class="st3 st5">suere cubilia Curae; In ac dui quis mi consectetuer lacinia. Nam </tspan><tspan x="0" y="80" class="st3 st5">pretium turpis.</tspan></text>
	<g>
		<circle class="st6" cx="92.5" cy="439.5" r="65.5"/>
		<rect x="187" y="372" class="st0" width="294" height="50"/>
		<text transform="matrix(1 0 0 1 187.0001 394.7999)" class="st1 st5">Lorem ipsum dolor</text>
		<rect x="187" y="417" class="st0" width="294" height="114"/>
		<text transform="matrix(1 0 0 1 187.0001 433.7198)"><tspan x="0" y="0" class="st3 st7">Vestibulum ante ipsum </tspan><tspan x="0" y="26.4" class="st3 st7">primis in faucibus orci luctus </tspan><tspan x="0" y="52.8" class="st3 st7">et ultrices posuere cubilia</tspan></text>
	</g>
	<g>
		<circle class="st6" cx="576.5" cy="439.5" r="65.5"/>
		<rect x="671" y="372" class="st0" width="294" height="50"/>
		<text transform="matrix(1 0 0 1 671.0001 394.7999)" class="st1 st5">Lorem ipsum dolor</text>
		<rect x="671" y="417" class="st0" width="294" height="114"/>
		<text transform="matrix(1 0 0 1 671.0001 433.7198)"><tspan x="0" y="0" class="st3 st7">Vestibulum ante ipsum </tspan><tspan x="0" y="26.4" class="st3 st7">primis in faucibus orci luctus </tspan><tspan x="0" y="52.8" class="st3 st7">et ultrices posuere cubilia</tspan></text>
	</g>
	<g>
		<circle class="st6" cx="92.5" cy="636.5" r="65.5"/>
		<rect x="187" y="569" class="st0" width="294" height="50"/>
		<text transform="matrix(1 0 0 1 187.0001 591.7999)" class="st1 st5">Lorem ipsum dolor</text>
		<rect x="187" y="614" class="st0" width="294" height="114"/>
		<text transform="matrix(1 0 0 1 187.0001 630.7198)"><tspan x="0" y="0" class="st3 st7">Vestibulum ante ipsum </tspan><tspan x="0" y="26.4" class="st3 st7">primis in faucibus orci luctus </tspan><tspan x="0" y="52.8" class="st3 st7">et ultrices posuere cubilia</tspan></text>
	</g>
	<g>
		<circle class="st6" cx="576.5" cy="636.5" r="65.5"/>
		<rect x="671" y="569" class="st0" width="294" height="50"/>
		<text transform="matrix(1 0 0 1 671.0001 591.7999)" class="st1 st5">Lorem ipsum dolor</text>
		<rect x="671" y="614" class="st0" width="294" height="114"/>
		<text transform="matrix(1 0 0 1 671.0001 630.7198)"><tspan x="0" y="0" class="st3 st7">Vestibulum ante ipsum </tspan><tspan x="0" y="26.4" class="st3 st7">primis in faucibus orci luctus </tspan><tspan x="0" y="52.8" class="st3 st7">et ultrices posuere cubilia</tspan></text>
	</g>
</g>
</svg>
