<?xml version="1.0" encoding="utf-8"?>
<!-- Generator: Adobe Illustrator 26.0.2, SVG Export Plug-In . SVG Version: 6.00 Build 0)  -->
<svg version="1.1" id="Ebene_1" xmlns="http://www.w3.org/2000/svg" xmlns:xlink="http://www.w3.org/1999/xlink" x="0px" y="0px"
	 viewBox="0 0 263.5 40" style="enable-background:new 0 0 263.5 40;" xml:space="preserve">
<style type="text/css">
	.st0{fill:url(#SVGID_1_);}
	.st1{fill:#EB621D;}
	.st2{fill:#E41522;}
	.st3{fill:#F59E1F;}
	.st4{fill:#2A6CB4;}
</style>
<linearGradient id="SVGID_1_" gradientUnits="userSpaceOnUse" x1="0" y1="23.2756" x2="123.09" y2="23.2756" gradientTransform="matrix(1 0 0 -1 0 43.2756)">
	<stop  offset="0" style="stop-color:#282457"/>
	<stop  offset="1" style="stop-color:#134391"/>
</linearGradient>
<path class="st0" d="M46.7,0.7L30.6,39H20.1L12.2,8.5C12,7,11.1,5.7,9.8,5.1C6.7,3.6,3.4,2.5,0,1.8l0.2-1.1h16.9
	c2.3,0,4.2,1.7,4.6,3.9L26,26.9L36.3,0.7H46.7z M87.9,26.6c0-10.1-14-10.6-13.9-15.2c0-1.4,1.3-2.9,4.3-3.2C81.6,7.8,85,8.4,88,9.8
	l1.8-8.1c-3-1.1-6.1-1.7-9.3-1.7c-9.8,0-16.7,5.2-16.8,12.8c0,5.5,4.9,8.5,8.7,10.5s5.2,3.1,5.2,4.8c0,2.6-3.1,3.7-5.9,3.8
	c-3.6,0.1-7.1-0.8-10.2-2.4l-1.8,8.5c3.5,1.4,7.3,2.1,11.1,2.1c10.4,0,17.3-5.2,17.3-13.1 M113.9,39.4h9.2l-8-38.3h-8.5
	c-1.8-0.1-3.4,0.9-4.2,2.4L87.4,39.1h10.4l2.1-5.8h12.8L113.9,39.4z M102.8,25.8l5.2-14.4l3,14.4H102.8z M60.9,0.7L52.7,39h-10
	L51,0.7H60.9z"/>
<g>
	<rect x="161.3" y="4.3" class="st1" width="19.2" height="31.4"/>
	<path class="st2" d="M163.3,20c0-6.1,2.8-11.9,7.7-15.7c-8.7-6.8-21.2-5.3-28.1,3.4c-6.8,8.7-5.3,21.2,3.4,28.1
		c7.2,5.7,17.5,5.7,24.7,0C166.1,32,163.3,26.1,163.3,20z"/>
	<path class="st3" d="M201.4,32.4v-0.6h0.3v-0.1H201v0.1h0.3v0.6H201.4z M202.7,32.4v-0.8h-0.2l-0.2,0.6l-0.2-0.6h-0.2v0.8h0.1v-0.6
		l0.2,0.5h0.1l0.2-0.5v0.6H202.7z"/>
	<path class="st3" d="M203.3,20c0,11-9,20-20,20c-4.5,0-8.8-1.5-12.3-4.3c8.7-6.8,10.2-19.4,3.3-28.1c-1-1.2-2.1-2.4-3.3-3.3
		c8.7-6.8,21.2-5.3,28.1,3.3C201.8,11.1,203.3,15.5,203.3,20L203.3,20L203.3,20z"/>
</g>
<path class="st4" d="M256.4,9.8l1.3-3.5h5.9V0h-40v40h40v-6.3H258l-2-2.4l-2.1,2.4h-15.7V21H233l6.5-14.6h6.3l1.5,3.3V6.3h7.8
	L256.4,9.8L256.4,9.8z M252,12.1l0-1.4l0.5,1.4l2.6,6.9h2.6l2.6-6.9l0.5-1.4v8.3h2.7V8.4H259l-2,5.4l-0.5,1.5l-0.6-1.5l-2.1-5.4
	h-4.5v10.7h2.7L252,12.1L252,12.1z M246.1,19.1h3.1l-4.7-10.7h-3.6l-4.7,10.7h3.1l0.8-2h5.2L246.1,19.1L246.1,19.1z M242.1,12
	l0.5-1.3l0.5,1.3l1.1,2.7H241L242.1,12L242.1,12z M240.3,21v10.6h8.9v-2.3H243v-1.9h6.1v-2.3H243v-1.9h6.2V21H240.3L240.3,21z
	 M259.1,31.6h3.5l-5-5.3l5-5.3h-3.5l-3.2,3.5l-3.2-3.5h-3.5l5,5.3l-5,5.3h3.4l3.2-3.5L259.1,31.6L259.1,31.6z M260.5,26.3l3,3.1
	v-6.1L260.5,26.3L260.5,26.3z"/>
</svg>
