<?xml version="1.0" encoding="utf-8"?>
<!-- Generator: Adobe Illustrator 24.0.1, SVG Export Plug-In . SVG Version: 6.00 Build 0)  -->
<svg version="1.1" xmlns="http://www.w3.org/2000/svg" xmlns:xlink="http://www.w3.org/1999/xlink" x="0px" y="0px"
	 viewBox="0 0 992 1000" style="enable-background:new 0 0 992 1000;" xml:space="preserve">
<style type="text/css">
	.st0{fill:none;}
	.st1{font-family:'OpenSans-Bold';}
	.st2{font-size:25px;}
	.st3{font-family:'OpenSans-Regular';}
	.st4{font-size:22px;}
	.st5{fill:#D0D0D0;}
	.st6{fill:#FFFFFF;}
	.st7{font-size:40px;}
</style>
<g id="_x39_92">
</g>
<g id="Ebene_2">
	<rect x="26" y="563" class="st0" width="294" height="50"/>
	<text transform="matrix(1 0 0 1 55.0616 582.0001)" class="st1 st2">Lorem ipsum dolor</text>
	<rect x="26" y="598" class="st0" width="294" height="114"/>
	<text transform="matrix(1 0 0 1 54.7178 614.7198)"><tspan x="0" y="0" class="st3 st4">Vestibulum ante ipsum </tspan><tspan x="-28.12" y="26.4" class="st3 st4">primis in faucibus orci luctus </tspan><tspan x="-13.1" y="52.8" class="st3 st4">et ultrices posuere cubilia</tspan><tspan x="47.46" y="89.2" class="st3 st4">weiterlesen ...</tspan></text>
	<circle class="st5" cx="174" cy="391" r="146"/>
	<rect x="26.88" y="383.78" class="st0" width="292" height="41"/>
	<text transform="matrix(1 0 0 1 82.4296 414.1783)" class="st6 st1 st7">400 x 400</text>
	<rect x="348" y="563" class="st0" width="294" height="50"/>
	<text transform="matrix(1 0 0 1 377.0616 582.0001)" class="st1 st2">Lorem ipsum dolor</text>
	<rect x="348" y="598" class="st0" width="294" height="114"/>
	<text transform="matrix(1 0 0 1 376.7178 614.7198)"><tspan x="0" y="0" class="st3 st4">Vestibulum ante ipsum </tspan><tspan x="-28.12" y="26.4" class="st3 st4">primis in faucibus orci luctus </tspan><tspan x="-13.1" y="52.8" class="st3 st4">et ultrices posuere cubilia</tspan><tspan x="47.46" y="89.2" class="st3 st4">weiterlesen ...</tspan></text>
	<circle class="st5" cx="496" cy="391" r="146"/>
	<rect x="348.88" y="383.78" class="st0" width="292" height="41"/>
	<text transform="matrix(1 0 0 1 404.4296 414.1783)" class="st6 st1 st7">400 x 400</text>
	<rect x="673" y="563" class="st0" width="294" height="50"/>
	<text transform="matrix(1 0 0 1 702.0616 582.0001)" class="st1 st2">Lorem ipsum dolor</text>
	<rect x="673" y="598" class="st0" width="294" height="114"/>
	<text transform="matrix(1 0 0 1 701.7178 614.7198)"><tspan x="0" y="0" class="st3 st4">Vestibulum ante ipsum </tspan><tspan x="-28.12" y="26.4" class="st3 st4">primis in faucibus orci luctus </tspan><tspan x="-13.1" y="52.8" class="st3 st4">et ultrices posuere cubilia</tspan><tspan x="47.46" y="89.2" class="st3 st4">weiterlesen ...</tspan></text>
	<circle class="st5" cx="821" cy="391" r="146"/>
	<rect x="673.88" y="383.78" class="st0" width="292" height="41"/>
	<text transform="matrix(1 0 0 1 729.4296 414.1783)" class="st6 st1 st7">400 x 400</text>
</g>
</svg>
