<?xml version="1.0" encoding="utf-8"?>
<!-- Generator: Adobe Illustrator 25.0.1, SVG Export Plug-In . SVG Version: 6.00 Build 0)  -->
<svg version="1.1" id="Ebene_1" xmlns="http://www.w3.org/2000/svg" xmlns:xlink="http://www.w3.org/1999/xlink" x="0px" y="0px"
	 viewBox="0 0 210 297" style="enable-background:new 0 0 210 297;" xml:space="preserve">
<style type="text/css">
	.st0{fill:#9D9D9C;}
	.st1{fill:#EDEDED;}
</style>
<rect x="14.3" y="18.8" class="st0" width="94.6" height="7.9"/>
<rect x="14.3" y="30.8" class="st0" width="178" height="7.9"/>
<rect x="14.3" y="42.8" class="st0" width="178" height="7.9"/>
<rect x="14.3" y="54.8" class="st0" width="178" height="7.9"/>
<rect x="14.3" y="66.7" class="st0" width="178" height="7.9"/>
<rect x="14.3" y="78.7" class="st0" width="178" height="7.9"/>
<rect x="14.4" y="238.4" class="st1" width="94.6" height="7.9"/>
<rect x="14.4" y="250.3" class="st1" width="94.6" height="7.9"/>
<rect x="14.4" y="262.3" class="st1" width="94.6" height="7.9"/>
<rect x="14.4" y="178.4" class="st1" width="178" height="7.9"/>
<rect x="14.4" y="190.4" class="st1" width="178" height="7.9"/>
<rect x="14.4" y="202.4" class="st1" width="178" height="7.9"/>
<rect x="14.4" y="214.4" class="st1" width="178" height="7.9"/>
<rect x="14.4" y="226.4" class="st1" width="178" height="7.9"/>
<rect x="14.4" y="107.7" class="st1" width="60.1" height="6.7"/>
<rect x="79" y="107.7" class="st1" width="113.4" height="6.7"/>
<rect x="14.4" y="102.6" class="st1" width="178" height="1.8"/>
<rect x="14.4" y="117.8" class="st1" width="178" height="1.8"/>
<rect x="14.4" y="122.9" class="st1" width="60.1" height="6.7"/>
<rect x="79" y="122.9" class="st1" width="113.4" height="6.7"/>
<rect x="14.4" y="132.9" class="st1" width="178" height="1.8"/>
<rect x="14.4" y="138" class="st1" width="60.1" height="6.7"/>
<rect x="79" y="138" class="st1" width="113.4" height="6.7"/>
<rect x="14.4" y="148.1" class="st1" width="178" height="1.8"/>
<rect x="14.4" y="153.2" class="st1" width="60.1" height="6.7"/>
<rect x="79" y="153.2" class="st1" width="113.4" height="6.7"/>
<rect x="14.4" y="163.2" class="st1" width="178" height="1.8"/>
</svg>
