<?xml version="1.0" standalone="no"?>
<!DOCTYPE svg PUBLIC "-//W3C//DTD SVG 20010904//EN"
 "http://www.w3.org/TR/2001/REC-SVG-20010904/DTD/svg10.dtd">
<svg version="1.0" xmlns="http://www.w3.org/2000/svg"
 width="512.000000pt" height="512.000000pt" viewBox="0 0 512.000000 512.000000"
 preserveAspectRatio="xMidYMid meet">
<metadata>
Created by potrace 1.11, written by Peter Selinger 2001-2013
</metadata>
<g transform="translate(0.000000,512.000000) scale(0.100000,-0.100000)"
fill="#000000" stroke="none">
<path d="M1095 3744 c-181 -31 -315 -131 -398 -297 -46 -92 -63 -176 -62 -299
1 -54 -1 -99 -5 -100 -3 -1 -25 -2 -50 -3 -115 -5 -167 -37 -190 -120 -27 -97
-6 -279 37 -317 15 -14 42 -24 86 -34 4 -1 33 -2 65 -3 l57 -1 0 -428 0 -427
25 -45 c36 -63 79 -82 200 -85 104 -3 179 12 211 41 52 47 53 58 59 518 l5
430 65 -4 c186 -11 279 8 316 66 43 64 51 248 15 330 -14 32 -30 47 -67 65
-43 21 -62 24 -159 23 -60 0 -125 -3 -142 -7 l-33 -5 0 89 c0 76 3 92 20 109
11 11 30 20 43 21 12 1 54 2 92 3 151 6 196 67 195 261 0 174 -52 227 -223
230 -51 1 -123 -4 -162 -11z"/>
<path d="M1815 3734 c-49 -16 -80 -48 -97 -100 -19 -58 -18 -1880 1 -1936 15
-45 59 -84 110 -98 52 -14 188 -14 239 -1 49 14 110 63 118 97 l6 24 32 -31
c65 -64 161 -96 291 -97 144 0 251 38 371 134 379 304 400 831 45 1156 -68 62
-142 111 -210 138 -69 27 -93 32 -186 36 -126 6 -241 -32 -306 -100 -13 -14
-26 -26 -29 -26 -3 0 -5 151 -4 336 1 361 -2 387 -50 434 -14 15 -47 32 -74
39 -61 15 -207 13 -257 -5z m746 -1195 c45 -22 86 -70 112 -128 16 -36 18 -57
14 -109 -8 -78 -49 -142 -122 -187 -42 -26 -58 -30 -119 -30 -102 1 -169 42
-217 136 -61 120 12 293 142 334 54 18 139 11 190 -16z"/>
<path d="M3450 3067 c-54 -25 -168 -138 -194 -191 -26 -56 -17 -113 27 -173
20 -26 110 -122 201 -213 l165 -164 -187 -191 c-104 -104 -196 -206 -205 -227
-39 -83 -5 -167 105 -260 75 -64 113 -81 164 -75 59 6 109 46 302 240 l163
164 182 -182 c105 -105 200 -191 224 -204 82 -41 144 -21 243 77 87 87 104
120 101 193 -2 43 -47 99 -229 282 -94 96 -172 178 -172 182 0 4 78 85 172
181 218 220 236 247 228 329 -6 60 -133 200 -215 236 -88 39 -133 11 -376
-239 l-156 -160 -179 180 c-233 234 -273 257 -364 215z"/>
</g>
</svg>
