<?xml version="1.0" encoding="utf-8"?>
<!-- Generator: Adobe Illustrator 26.5.0, SVG Export Plug-In . SVG Version: 6.00 Build 0)  -->
<svg version="1.1" id="Original" xmlns="http://www.w3.org/2000/svg" xmlns:xlink="http://www.w3.org/1999/xlink" x="0px" y="0px"
	 viewBox="0 0 174 40" style="enable-background:new 0 0 174 40;" xml:space="preserve">
<style type="text/css">
	.st0{fill:none;}
	.st1{fill:#1F3A6A;}
	.st2{fill:#5DC4E9;}
</style>
<path class="st0" d="M4.7,0h480.7c2.6,0,4.7,2.1,4.7,4.7v172.7c0,2.6-2.1,4.7-4.7,4.7H4.7c-2.6,0-4.7-2.1-4.7-4.7V4.7
	C0,2.1,2.1,0,4.7,0z"/>
<g>
	<path class="st1" d="M71.2,9.2h-3.7v21.1h3.7V9.2z M59.2,19.8c0,1.6-0.4,3.2-1.2,4.5c-1.3,2-3.1,2.9-4.8,2.9
		c-1.4,0-2.8-0.6-3.9-1.5c-1.5-1.5-1.9-3.8-1.9-6.1c0-3.2,0.9-5,2.4-6.3c0.9-0.9,2.1-1.3,3.3-1.3c1.3,0,2.5,0.5,3.5,1.3
		C59.3,15.5,59.2,19.6,59.2,19.8 M61.1,36.1c1.6-2.1,1.7-4.2,1.8-8.6l0-18.3h-3.5v3.3c-0.5-0.7-1-1.4-1.7-2c-1.4-1.2-3.2-1.8-5-1.7
		c-2.8,0-5.5,1.4-7.1,3.8c-1.7,2.3-2.1,5-2.1,7.3c0,1.5,0.2,3,0.6,4.4c0.5,1.8,1.5,3.4,2.9,4.6c1.6,1.3,3.6,1.9,5.6,1.8
		c1.8-0.1,3.6-0.7,5-1.8c0.5-0.5,1-1,1.4-1.6l0,2.9c0,1-0.2,1.9-0.5,2.8c-0.2,0.6-0.5,1.1-0.9,1.6c-1,1.2-2.3,1.8-4.8,1.9
		c-1.8,0-3.6-0.3-5.4-0.9c-0.7-0.3-1.4-0.6-2.1-1l-0.4,3.7c0.6,0.2,1,0.4,1.7,0.6c1.9,0.6,3.9,0.9,5.9,0.9c2.9,0,4.8-0.7,6-1.3
		C59.5,37.8,60.4,37,61.1,36.1 M67.3,4.2h4.1V0h-4.1V4.2z M85,12.3c0.9,0,1.7,0.2,2.6,0.5V9.1c-0.2,0-1.3-0.2-2.3-0.2
		c-1.9-0.1-3.7,0.7-5,2.2c-0.4,0.5-0.7,1-1,1.6l-0.2-3.5h-3.5c0.1,2.6,0.2,4.5,0.2,7.1c0,3.1-0.1,5.2-0.1,8.2v5.7h3.8V19.9
		c0.1-2,0.2-4.6,2.3-6.4C82.7,12.7,83.8,12.3,85,12.3 M104.3,19.5c0,2.3-0.7,5.7-3.5,7.3c-1.7,0.9-3.7,1-5.5,0.2
		c-0.4-0.2-0.7-0.4-1-0.7c-0.9-0.7-1.6-1.7-2-2.8c-0.5-1.3-0.8-2.7-0.7-4.1c0.1-2.9,1.3-5,2.6-6.1c1.2-1,2.6-1.5,4.1-1.5
		c3.3,0,4.7,2.3,5.4,4C104.1,17,104.3,18.2,104.3,19.5 M105.1,27.9c2.4-2.5,3.1-5.8,3.1-8.5c-0.1-5.2-2.8-8.3-5.4-9.6
		c-1.4-0.7-3-1-4.6-1c-4.7,0-7.8,2.4-9.2,5c-1,1.8-1.5,3.9-1.5,6c0,4.2,1.5,6.7,3.3,8.5c0.4,0.4,0.9,0.7,1.3,1
		c1.2,0.8,2.9,1.4,5.7,1.4c1.5,0.1,3-0.2,4.4-0.8C103.4,29.3,104.3,28.7,105.1,27.9"/>
	<path class="st1" d="M111.5,13.6c0.1,4.1,0.1,7,0.1,11.1c0,5.1-0.1,10.2-0.1,15.3h3.8V27.4c0.4,0.5,0.8,0.9,1.2,1.3
		c1.4,1.3,3.3,1.9,5.2,1.9c2.5,0,4.9-1,6.6-2.9c3.1-3.4,2.9-7.9,2.9-8.6c0-1.6-0.3-3.1-0.8-4.6c-1-2.6-3.4-5.8-8.4-5.8
		c-0.5,0-3.4,0-5.6,2.2c-0.5,0.5-0.9,1-1.3,1.5l-0.2-3.2h-3.5C111.4,10.8,111.4,12,111.5,13.6z M115.2,19.5c0-1,0.1-2,0.4-2.9
		c1-3,3.2-4.6,5.7-4.6c2,0,4,1.1,5.1,3.5c0.6,1.4,0.9,2.8,0.8,4.3c0,1.1-0.2,2.2-0.5,3.2c-1.4,3.9-4.5,4.3-5.5,4.3
		c-2.4,0-4.6-1.6-5.5-4.5C115.3,21.7,115.2,20.6,115.2,19.5L115.2,19.5z"/>
	<path class="st1" d="M170,9.2l-4.7,11.4l-2.1,5.5l-0.1,0.3c-0.5-1.6-1.3-3.6-1.9-5.4l-4.4-11.8h-4l8.5,21.1L157,40h3.8L174,9.2
		L170,9.2z"/>
	<path class="st1" d="M149.9,11.9c-1.1-1.8-3.9-3.1-7.2-3.1c-4,0-6,1.4-6.6,1.8v3.3c0.8-0.5,3.3-2,5.9-2c2.6,0,4.6,1.5,5.1,2.8
		c0.3,0.9,0.4,1.8,0.4,2.8c-1,0-2-0.1-3-0.1c-2.1,0-5,0.1-7.1,1.1c-1.6,0.8-3.8,2.3-3.8,5.6c0,1.9,0.7,3.6,2.1,4.9
		c1.2,1,2.8,1.4,4.4,1.5c2.4,0.1,4.5-0.7,5.5-1.4c0.8-0.7,1.6-1.4,2.2-2.2v3.3h3.2V16.6C151,14.5,150.5,12.7,149.9,11.9z
		 M147.5,20.7c0,1-0.1,1.9-0.3,2.8c-0.2,0.7-0.5,1.3-0.9,1.8c-1.2,1.7-3.3,2.2-4.8,2.2c-1.7,0-4-0.9-4-3.4c0-2.5,2.9-3.7,4.5-4
		c0.9-0.1,1.9-0.2,2.8-0.2c0.9,0,1.9,0,2.8,0.1L147.5,20.7z"/>
	<polygon class="st1" points="21.2,9.4 18.8,9.4 18.8,10 20.7,10 25.4,29.4 1,29.4 5.8,10 7.7,10 7.7,9.4 5.3,9.4 0,30.2 26.4,30.2 
			"/>
	<path class="st2" d="M17.9,0.6H8.6c-0.5,0-0.9,0.4-0.9,0.9v9.1h0.7V1.6c0-0.1,0.1-0.2,0.2-0.2h1.7v6.6H8.5l2.6,2.8h4.2L18,7.9h-1.8
		V1.3h1.7c0.1,0,0.2,0.1,0.2,0.2v9.1h0.7V1.6C18.8,1.1,18.4,0.6,17.9,0.6z"/>
	<path class="st1" d="M11.2,22h4.1c0.3,0,0.5-0.2,0.5-0.5c0,0,0,0,0,0l-0.2-2.7c0-0.3-0.2-0.5-0.5-0.5h-3.7c-0.3,0-0.5,0.2-0.5,0.5
		l-0.2,2.7C10.7,21.8,10.9,22,11.2,22C11.2,22,11.2,22,11.2,22z"/>
	<path class="st1" d="M9.4,18.4H5.7c-0.3,0-0.5,0.2-0.6,0.5l-0.5,2.7C4.5,21.8,4.7,22,4.9,22c0,0,0.1,0,0.1,0h4.1
		c0.3,0,0.5-0.2,0.5-0.5l0.2-2.7C9.9,18.6,9.7,18.4,9.4,18.4C9.5,18.4,9.4,18.4,9.4,18.4z"/>
	<path class="st1" d="M11.3,17.5h3.8c0.2,0,0.4-0.2,0.4-0.4c0,0,0,0,0,0L15.4,15c0-0.2-0.2-0.4-0.4-0.4h-3.4c-0.2,0-0.4,0.2-0.4,0.4
		L11,17.1C11,17.3,11.1,17.5,11.3,17.5C11.3,17.5,11.3,17.5,11.3,17.5z"/>
	<path class="st1" d="M9.9,14.6H6.4c-0.2,0-0.4,0.2-0.5,0.4l-0.4,2.2c0,0.2,0.1,0.3,0.2,0.4c0,0,0.1,0,0.1,0h3.8
		c0.2,0,0.4-0.2,0.4-0.4l0.2-2.1C10.2,14.8,10.1,14.6,9.9,14.6C9.9,14.6,9.9,14.6,9.9,14.6z"/>
	<path class="st1" d="M20.6,17.5c0.2,0,0.3-0.1,0.3-0.3c0,0,0-0.1,0-0.1L20.5,15c-0.1-0.2-0.2-0.4-0.5-0.4h-3.4
		c-0.2,0-0.4,0.2-0.4,0.4c0,0,0,0,0,0l0.2,2.1c0,0.2,0.2,0.4,0.4,0.4L20.6,17.5z"/>
	<path class="st1" d="M11.5,13.9h3.4c0.2,0,0.3-0.1,0.3-0.3c0,0,0,0,0,0l-0.1-1.7c0-0.2-0.2-0.3-0.4-0.3h-3.2
		c-0.2,0-0.4,0.2-0.4,0.3l-0.1,1.7C11.2,13.7,11.3,13.9,11.5,13.9C11.5,13.9,11.5,13.9,11.5,13.9z"/>
	<path class="st1" d="M19.9,13.9c0.2,0,0.3-0.1,0.3-0.3c0,0,0-0.1,0-0.1l-0.3-1.7c0-0.2-0.2-0.3-0.4-0.3h-3.2
		c-0.2,0-0.3,0.1-0.3,0.3c0,0,0,0,0,0l0.1,1.7c0,0.2,0.2,0.3,0.4,0.3L19.9,13.9z"/>
	<path class="st1" d="M10.2,11.5H7c-0.2,0-0.4,0.1-0.4,0.3l-0.3,1.7c0,0.1,0.1,0.3,0.2,0.3c0,0,0.1,0,0.1,0H10
		c0.2,0,0.4-0.2,0.4-0.3l0.1-1.7C10.5,11.7,10.4,11.5,10.2,11.5C10.2,11.5,10.2,11.5,10.2,11.5z"/>
	<path class="st1" d="M21.4,22c0.2,0,0.4-0.2,0.4-0.4c0,0,0-0.1,0-0.1l-0.5-2.7c-0.1-0.3-0.3-0.5-0.6-0.5H17c-0.2,0-0.5,0.2-0.5,0.4
		c0,0,0,0,0,0.1l0.2,2.7c0,0.3,0.3,0.5,0.5,0.5L21.4,22z"/>
	<path class="st1" d="M15.2,23h-4c-0.3,0-0.6,0.3-0.6,0.6L10.4,27c0,0.3,0.2,0.6,0.5,0.6c0,0,0,0,0,0h4.5c0.3,0,0.6-0.2,0.6-0.5
		c0,0,0,0,0,0l-0.2-3.4C15.8,23.3,15.6,23,15.2,23z"/>
	<path class="st1" d="M8.9,23h-4c-0.3,0-0.6,0.3-0.7,0.6L3.5,27c-0.1,0.3,0.1,0.5,0.3,0.6c0,0,0.1,0,0.1,0h4.6
		c0.3,0,0.6-0.3,0.6-0.6l0.3-3.4C9.5,23.3,9.3,23.1,8.9,23C9,23,9,23,8.9,23z"/>
	<path class="st1" d="M22.3,23.6c-0.1-0.3-0.4-0.6-0.7-0.6h-4c-0.3,0-0.5,0.2-0.5,0.5c0,0,0,0,0,0.1l0.3,3.4c0,0.3,0.3,0.6,0.6,0.6
		h4.6c0.3,0,0.5-0.2,0.5-0.4c0,0,0-0.1,0-0.1L22.3,23.6z"/>
</g>
</svg>
