<?xml version="1.0" encoding="utf-8"?>
<!-- Generator: Adobe Illustrator 26.0.2, SVG Export Plug-In . SVG Version: 6.00 Build 0)  -->
<svg version="1.1" id="Ebene_1" xmlns="http://www.w3.org/2000/svg" xmlns:xlink="http://www.w3.org/1999/xlink" x="0px" y="0px"
	 viewBox="0 0 72 40" style="enable-background:new 0 0 72 40;" xml:space="preserve">
<style type="text/css">
	.st0{fill:#F5B1C6;}
	.st1{fill:#0A0C0B;}
</style>
<g>
	<g transform="translate(-310 -37)">
		<g transform="translate(310 37)">
			<path class="st0" d="M6.91,0h58.17C68.9,0,72,3.1,72,6.91v26.17C72,36.9,68.9,40,65.09,40H6.91C3.1,40,0,36.9,0,33.09V6.91
				C0,3.1,3.1,0,6.91,0z"/>
			<g transform="translate(4.4136 8.4)">
				<path class="st1" d="M60.86,15.03c-0.94,0-1.71,0.77-1.71,1.72c0,0.95,0.76,1.72,1.71,1.72c0.94,0,1.71-0.77,1.71-1.72
					C62.56,15.8,61.8,15.03,60.86,15.03z M55.24,13.7c0-1.3-1.1-2.36-2.46-2.36s-2.46,1.05-2.46,2.36c0,1.3,1.1,2.36,2.46,2.36
					S55.24,15,55.24,13.7z M55.25,9.12h2.72v9.16h-2.72V17.7c-0.77,0.53-1.69,0.84-2.69,0.84c-2.64,0-4.79-2.16-4.79-4.83
					s2.14-4.83,4.79-4.83c1,0,1.93,0.31,2.69,0.84V9.12L55.25,9.12z M33.51,10.32V9.12h-2.78v9.16h2.79v-4.28
					c0-1.44,1.55-2.22,2.62-2.22c0.01,0,0.02,0,0.03,0V9.12C35.07,9.12,34.05,9.6,33.51,10.32L33.51,10.32z M26.58,13.7
					c0-1.3-1.1-2.36-2.46-2.36c-1.36,0-2.46,1.05-2.46,2.36c0,1.3,1.1,2.36,2.46,2.36C25.47,16.06,26.58,15,26.58,13.7z M26.58,9.12
					h2.72v9.16h-2.72V17.7c-0.77,0.53-1.69,0.84-2.69,0.84c-2.65,0-4.79-2.16-4.79-4.83s2.14-4.83,4.79-4.83
					c1,0,1.93,0.31,2.69,0.84V9.12L26.58,9.12z M42.94,8.88c-1.09,0-2.11,0.34-2.8,1.28V9.12h-2.71v9.16h2.74v-4.81
					c0-1.39,0.93-2.07,2.04-2.07c1.19,0,1.88,0.72,1.88,2.06v4.83h2.71v-5.82C46.81,10.33,45.13,8.88,42.94,8.88L42.94,8.88z
					 M15.14,18.28h2.84V5.04h-2.84C15.14,5.04,15.14,18.28,15.14,18.28z M2.65,18.29h3.01V5.04H2.65V18.29z M13.18,5.04
					c0,2.87-1.11,5.54-3.08,7.52l4.16,5.73h-3.72l-4.52-6.23l1.17-0.88c1.94-1.46,3.05-3.7,3.05-6.14L13.18,5.04L13.18,5.04z"/>
			</g>
		</g>
	</g>
</g>
</svg>
