<?xml version="1.0" encoding="utf-8"?>
<!-- Generator: Adobe Illustrator 24.0.1, SVG Export Plug-In . SVG Version: 6.00 Build 0)  -->
<svg version="1.1" xmlns="http://www.w3.org/2000/svg" xmlns:xlink="http://www.w3.org/1999/xlink" x="0px" y="0px"
	 viewBox="0 0 992 1000" style="enable-background:new 0 0 992 1000;" xml:space="preserve">
<style type="text/css">
	.st0{fill:none;}
	.st1{font-family:'OpenSans-Bold';}
	.st2{font-size:60px;}
	.st3{font-family:'OpenSans-Regular';}
	.st4{font-size:40px;}
	.st5{font-size:30px;}
	.st6{fill:#D0D0D0;}
	.st7{fill:#9D9D9C;}
	.st8{fill:#FFFFFF;}
	.st9{font-size:20px;}
</style>
<g id="_x39_92">
</g>
<g id="Ebene_2">
	<rect x="26.47" y="61.97" class="st0" width="938.95" height="75"/>
	<text transform="matrix(1 0 0 1 26.4683 107.5737)" class="st1 st2">Lorem ipsum dolor sit amet</text>
	<rect x="26.47" y="124.97" class="st0" width="938.95" height="75"/>
	<text transform="matrix(1 0 0 1 26.4683 155.3704)" class="st3 st4">Aenean commodo ligula eget dolor.</text>
	<rect x="28.47" y="212.47" class="st0" width="937.45" height="120.99"/>
	<text transform="matrix(1 0 0 1 28.4683 235.2661)"><tspan x="0" y="0" class="st3 st5">Lorem ipsum dolor sit amet, consectetuer adipiscing elit, sed diam </tspan><tspan x="0" y="40" class="st3 st5">nonummy nibh euismod tincidunt ut laoreet dolore magna ali</tspan><tspan x="862.41" y="40" class="st3 st5">-</tspan><tspan x="0" y="80" class="st3 st5">quam erat.</tspan></text>
	<rect x="28.47" y="874.43" class="st0" width="937.45" height="120.99"/>
	<text transform="matrix(1 0 0 1 28.4683 897.2339)"><tspan x="0" y="0" class="st3 st5">Vestibulum ante ipsum primis in faucibus orci luctus et ultrices po</tspan><tspan x="918.81" y="0" class="st3 st5">-</tspan><tspan x="0" y="40" class="st3 st5">suere cubilia Curae; In ac dui quis mi consectetuer lacinia. </tspan></text>
	<g>
		<rect x="27" y="391" class="st6" width="291" height="128"/>
		<rect x="27" y="521" class="st7" width="291" height="51"/>
		<rect x="26" y="537" class="st0" width="292" height="34"/>
		<text transform="matrix(1 0 0 1 77.6495 552.1998)" class="st8 st1 st9">Lorem ipsum dolor</text>
		<rect x="26" y="449" class="st0" width="292" height="41"/>
		<text transform="matrix(1 0 0 1 81.5508 479.4)" class="st8 st1 st4">400 x 400</text>
	</g>
	<g>
		<rect x="349" y="391" class="st6" width="291" height="128"/>
		<rect x="349" y="521" class="st7" width="291" height="51"/>
		<rect x="348" y="537" class="st0" width="292" height="34"/>
		<text transform="matrix(1 0 0 1 399.6495 552.1998)" class="st8 st1 st9">Lorem ipsum dolor</text>
		<rect x="348" y="449" class="st0" width="292" height="41"/>
		<text transform="matrix(1 0 0 1 403.5508 479.4)" class="st8 st1 st4">400 x 400</text>
	</g>
	<g>
		<rect x="673" y="391" class="st6" width="291" height="128"/>
		<rect x="673" y="521" class="st7" width="291" height="51"/>
		<rect x="672" y="537" class="st0" width="292" height="34"/>
		<text transform="matrix(1 0 0 1 723.6495 552.1998)" class="st8 st1 st9">Lorem ipsum dolor</text>
		<rect x="672" y="449" class="st0" width="292" height="41"/>
		<text transform="matrix(1 0 0 1 727.5508 479.4)" class="st8 st1 st4">400 x 400</text>
	</g>
	<g>
		<rect x="27" y="613" class="st6" width="291" height="128"/>
		<rect x="27" y="743" class="st7" width="291" height="51"/>
		<rect x="26" y="759" class="st0" width="292" height="34"/>
		<text transform="matrix(1 0 0 1 77.6495 774.1998)" class="st8 st1 st9">Lorem ipsum dolor</text>
		<rect x="26" y="671" class="st0" width="292" height="41"/>
		<text transform="matrix(1 0 0 1 81.5508 701.4)" class="st8 st1 st4">400 x 400</text>
	</g>
	<g>
		<rect x="349" y="613" class="st6" width="291" height="128"/>
		<rect x="349" y="743" class="st7" width="291" height="51"/>
		<rect x="348" y="759" class="st0" width="292" height="34"/>
		<text transform="matrix(1 0 0 1 399.6495 774.1998)" class="st8 st1 st9">Lorem ipsum dolor</text>
		<rect x="348" y="671" class="st0" width="292" height="41"/>
		<text transform="matrix(1 0 0 1 403.5508 701.4)" class="st8 st1 st4">400 x 400</text>
	</g>
	<g>
		<rect x="673" y="613" class="st6" width="291" height="128"/>
		<rect x="673" y="743" class="st7" width="291" height="51"/>
		<rect x="672" y="759" class="st0" width="292" height="34"/>
		<text transform="matrix(1 0 0 1 723.6495 774.1998)" class="st8 st1 st9">Lorem ipsum dolor</text>
		<rect x="672" y="671" class="st0" width="292" height="41"/>
		<text transform="matrix(1 0 0 1 727.5508 701.4)" class="st8 st1 st4">400 x 400</text>
	</g>
</g>
</svg>
