<?xml version="1.0" encoding="utf-8"?>
<!-- Generator: Adobe Illustrator 24.0.1, SVG Export Plug-In . SVG Version: 6.00 Build 0)  -->
<svg version="1.1" xmlns="http://www.w3.org/2000/svg" xmlns:xlink="http://www.w3.org/1999/xlink" x="0px" y="0px"
	 viewBox="0 0 992 1000" style="enable-background:new 0 0 992 1000;" xml:space="preserve">
<style type="text/css">
	.st0{fill:none;}
	.st1{font-family:'MyriadPro-Regular';}
	.st2{font-size:60px;}
	.st3{font-size:40px;}
	.st4{font-size:30px;}
	.st5{fill:#C6C6C5;}
</style>
<g id="_x39_92">
</g>
<g id="Ebene_2">
	<rect x="26.47" y="61.97" class="st0" width="938.95" height="75"/>
	<text transform="matrix(1 0 0 1 26.4683 104.5737)" class="st1 st2">Lorem ipsum dolor sit amet</text>
	<rect x="26.47" y="124.97" class="st0" width="938.95" height="75"/>
	<text transform="matrix(1 0 0 1 26.4683 153.3704)" class="st1 st3">Aenean commodo ligula eget dolor.</text>
	<rect x="28.47" y="212.47" class="st0" width="937.45" height="120.99"/>
	<text transform="matrix(1 0 0 1 28.4683 233.7661)"><tspan x="0" y="0" class="st1 st4">Lorem ipsum dolor sit amet, consectetuer adipiscing elit, sed diam nonum</tspan><tspan x="923.08" y="0" class="st1 st4">-</tspan><tspan x="0" y="40" class="st1 st4">my nibh euismod tincidunt ut laoreet dolore magna aliquam erat.</tspan></text>
	<rect x="28.47" y="799.43" class="st0" width="937.45" height="120.99"/>
	<text transform="matrix(1 0 0 1 28.4683 820.7339)"><tspan x="0" y="0" class="st1 st4">Vestibulum ante ipsum primis in faucibus orci luctus et ultrices posuere cu</tspan><tspan x="923.14" y="0" class="st1 st4">-</tspan><tspan x="0" y="40" class="st1 st4">bilia Curae; In ac dui quis mi consectetuer lacinia. Nam pretium turpis.</tspan></text>
	<rect x="578" y="373.21" class="st5" width="282" height="88.06"/>
	<rect x="202" y="495.24" class="st5" width="160" height="88.06"/>
	<rect x="389" y="495.32" class="st5" width="241" height="88.06"/>
	<rect x="187" y="618.41" class="st5" width="240" height="88.06"/>
	<rect x="459" y="618.41" class="st5" width="198" height="88.06"/>
	<rect x="687" y="618.41" class="st5" width="117" height="88.06"/>
	<rect x="659" y="495.32" class="st5" width="129" height="88.06"/>
	<rect x="136" y="373.24" class="st5" width="212" height="88.06"/>
	<rect x="375" y="373.24" class="st5" width="171" height="88.06"/>
</g>
</svg>
