<?xml version="1.0" encoding="utf-8"?>
<!-- Generator: Adobe Illustrator 24.0.1, SVG Export Plug-In . SVG Version: 6.00 Build 0)  -->
<svg version="1.1" xmlns="http://www.w3.org/2000/svg" xmlns:xlink="http://www.w3.org/1999/xlink" x="0px" y="0px"
	 viewBox="0 0 992 1000" style="enable-background:new 0 0 992 1000;" xml:space="preserve">
<style type="text/css">
	.st0{fill:none;}
	.st1{font-family:'MyriadPro-Regular';}
	.st2{font-size:60px;}
	.st3{font-size:40px;}
	.st4{font-size:30px;}
	.st5{font-size:25px;}
	.st6{fill:none;stroke:#1D1D1B;stroke-width:3;stroke-miterlimit:10;}
</style>
<g id="_x39_92">
</g>
<g id="Ebene_2">
	<rect x="26.47" y="61.97" class="st0" width="938.95" height="75"/>
	<text transform="matrix(1 0 0 1 26.4683 104.5737)" class="st1 st2">Lorem ipsum dolor sit amet</text>
	<rect x="26.47" y="124.97" class="st0" width="938.95" height="75"/>
	<text transform="matrix(1 0 0 1 26.4683 153.3704)" class="st1 st3">Aenean commodo ligula eget dolor.</text>
	<rect x="28.47" y="212.47" class="st0" width="937.45" height="120.99"/>
	<text transform="matrix(1 0 0 1 28.4683 233.7661)"><tspan x="0" y="0" class="st1 st4">Lorem ipsum dolor sit amet, consectetuer adipiscing elit, sed diam nonum</tspan><tspan x="923.08" y="0" class="st1 st4">-</tspan><tspan x="0" y="40" class="st1 st4">my nibh euismod tincidunt ut laoreet dolore magna aliquam erat volutpat. </tspan><tspan x="0" y="80" class="st1 st4">Ut wisi enim ad minim veniam.</tspan></text>
	<rect x="28.47" y="829.43" class="st0" width="937.45" height="120.99"/>
	<text transform="matrix(1 0 0 1 28.4683 850.7339)"><tspan x="0" y="0" class="st1 st4">Vestibulum ante ipsum primis in faucibus orci luctus et ultrices posuere cu</tspan><tspan x="923.14" y="0" class="st1 st4">-</tspan><tspan x="0" y="40" class="st1 st4">bilia Curae; In ac dui quis mi consectetuer lacinia. Nam pretium turpis.</tspan></text>
	<rect x="26.47" y="417.46" class="st0" width="355.48" height="40.5"/>
	<text transform="matrix(1 0 0 1 26.4683 435.2059)" class="st1 st5">Aenean commodo ligula.</text>
	<rect x="428.45" y="417.46" class="st0" width="536.97" height="91.5"/>
	<text transform="matrix(1 0 0 1 428.4482 435.2059)"><tspan x="0" y="0" class="st1 st5">Etiam rhoncus. Maecenas tempus, tellus eget con</tspan><tspan x="512.14" y="0" class="st1 st5">-</tspan><tspan x="0" y="30" class="st1 st5">dimentum rhoncus, sem quam semper libero, sit </tspan><tspan x="0" y="60" class="st1 st5">amet adipiscing sem neque sed ipsum.</tspan></text>
	<line class="st6" x1="26.47" y1="396.46" x2="968.42" y2="396.46"/>
	<line class="st6" x1="26.47" y1="519.45" x2="968.42" y2="519.45"/>
	<rect x="26.47" y="540.45" class="st0" width="355.48" height="40.5"/>
	<text transform="matrix(1 0 0 1 26.4683 558.1999)" class="st1 st5">Aenean commodo ligula.</text>
	<rect x="428.45" y="540.45" class="st0" width="536.97" height="91.5"/>
	<text transform="matrix(1 0 0 1 428.4482 558.1999)"><tspan x="0" y="0" class="st1 st5">Phasellus ullamcorper ipsum rutrum nunc. Nunc </tspan><tspan x="0" y="30" class="st1 st5">nonummy metus. Vestibulum volutpat pretium </tspan><tspan x="0" y="60" class="st1 st5">libero. Cras id dui. Aenean ut eros et nisl ibulum.</tspan></text>
	<line class="st6" x1="26.47" y1="519.45" x2="968.42" y2="519.45"/>
	<line class="st6" x1="26.47" y1="642.45" x2="968.42" y2="642.45"/>
	<rect x="26.47" y="663.44" class="st0" width="355.48" height="40.5"/>
	<text transform="matrix(1 0 0 1 26.4683 681.1939)" class="st1 st5">Aenean commodo ligula.</text>
	<rect x="428.45" y="663.44" class="st0" width="536.97" height="91.5"/>
	<text transform="matrix(1 0 0 1 428.4482 681.1939)"><tspan x="0" y="0" class="st1 st5">Etiam rhoncus. Maecenas tempus, tellus eget con</tspan><tspan x="512.14" y="0" class="st1 st5">-</tspan><tspan x="0" y="30" class="st1 st5">dimentum rhoncus, sem quam semper libero, sit </tspan><tspan x="0" y="60" class="st1 st5">amet adipiscing sem neque sed ipsum.</tspan></text>
	<line class="st6" x1="26.47" y1="642.45" x2="968.42" y2="642.45"/>
	<line class="st6" x1="26.47" y1="765.44" x2="968.42" y2="765.44"/>
</g>
</svg>
