<?xml version="1.0" encoding="UTF-8"?>
<svg id="_x2014_ŽÓť_1" xmlns="http://www.w3.org/2000/svg" xmlns:xlink="http://www.w3.org/1999/xlink" version="1.1" viewBox="0 0 3482 478.1">
  <!-- Generator: Adobe Illustrator 29.1.0, SVG Export Plug-In . SVG Version: 2.1.0 Build 142)  -->
  <defs>
    <style>
      .st0 {
        fill: url(#Unbenannter_Verlauf);
        fill-rule: evenodd;
      }

      .st1 {
        fill: #fff;
      }
    </style>
    <linearGradient id="Unbenannter_Verlauf" data-name="Unbenannter Verlauf" x1="0" y1="240.9" x2="478.1" y2="240.9" gradientTransform="translate(0 480) scale(1 -1)" gradientUnits="userSpaceOnUse">
      <stop offset=".2" stop-color="#8637ff"/>
      <stop offset=".8" stop-color="#00e0d1"/>
    </linearGradient>
  </defs>
  <path class="st0" d="M478.1,334.7c0,79.2-64.2,143.4-143.4,143.4H95.6v-95.6h239.1c26.4,0,47.8-21.4,47.8-47.8v-143.4h95.6v143.4ZM143.4,0C64.2,0,0,64.2,0,143.4v239.1h95.6v-239.1c0-26.4,21.4-47.8,47.8-47.8h143.4V0h-143.4ZM382.5,95.6h95.6V0h-95.6v95.6ZM286.9,191.3h95.6v-95.6h-95.6v95.6ZM191.3,286.9h95.6v-95.6h-95.6v95.6h0Z"/>
  <g>
    <path class="st1" d="M891.3,133.4h-182.8v75.1h145.8v71.3h-145.8v136.2h-92.2V62.1h275v71.3Z"/>
    <path class="st1" d="M1113.3,62.1c42.2,0,75,9.9,98.4,29.8,23.4,19.8,35.1,46.2,35.1,79.1s-11.6,63.6-34.8,82.6c-23.2,18.9-55.9,28.4-98.1,28.4l-8.6,4.8h-70.2v129.2h-90.6V62.1h168.9-.1ZM1100.4,221.4c17.9,0,31.3-3.6,40.2-10.7,8.9-7.1,13.4-18.6,13.4-34.3s-4.5-26.6-13.4-33.8c-8.9-7.1-22.3-10.7-40.2-10.7h-65.4v89.5h65.4ZM1154.6,240.7l113.1,175.3h-101.9l-90.6-154.9,79.3-20.4h0Z"/>
    <path class="st1" d="M1468.8,56.8c35.7,0,66.6,7.2,92.5,21.7s45.8,35.3,59.8,62.5c13.9,27.2,20.9,59.9,20.9,98.1s-7,71-20.9,98.1c-13.9,27.2-33.9,48-59.8,62.5s-56.7,21.7-92.5,21.7-66.7-7.2-92.8-21.7c-26.1-14.5-46.1-35.3-60-62.5s-20.9-59.9-20.9-98.1,7-70.9,20.9-98.1c13.9-27.2,34-48,60-62.5,26.1-14.5,57-21.7,92.8-21.7ZM1468.8,129.2c-17.2,0-31.6,4.1-43.4,12.3s-20.7,20.5-26.8,36.7c-6.1,16.3-9.1,36.6-9.1,60.9s3,44.1,9.1,60.6c6.1,16.4,15,28.8,26.8,37s26.3,12.3,43.4,12.3,31.5-4.1,43.2-12.3c11.6-8.2,20.5-20.5,26.5-37,6.1-16.4,9.1-36.6,9.1-60.6s-3-44.6-9.1-60.9c-6.1-16.3-14.9-28.5-26.5-36.7s-26-12.3-43.2-12.3h0Z"/>
    <path class="st1" d="M1863.9,56.8c35.7,0,66.6,7.2,92.5,21.7s45.8,35.3,59.8,62.5c13.9,27.2,20.9,59.9,20.9,98.1s-7,71-20.9,98.1c-13.9,27.2-33.9,48-59.8,62.5s-56.7,21.7-92.5,21.7-66.7-7.2-92.8-21.7c-26.1-14.5-46.1-35.3-60-62.5s-20.9-59.9-20.9-98.1,7-70.9,20.9-98.1c13.9-27.2,34-48,60-62.5,26.1-14.5,57-21.7,92.8-21.7ZM1863.9,129.2c-17.2,0-31.6,4.1-43.4,12.3s-20.7,20.5-26.8,36.7c-6.1,16.3-9.1,36.6-9.1,60.9s3,44.1,9.1,60.6c6.1,16.4,15,28.8,26.8,37s26.3,12.3,43.4,12.3,31.5-4.1,43.2-12.3c11.6-8.2,20.5-20.5,26.5-37,6.1-16.4,9.1-36.6,9.1-60.6s-3-44.6-9.1-60.9c-6.1-16.3-14.9-28.5-26.5-36.7s-26-12.3-43.2-12.3h0Z"/>
    <path class="st1" d="M2383.4,62.1v71.3h-115.3v282.5h-92.2V133.4h-115.8V62.1h323.3Z"/>
    <path class="st1" d="M2436,416V62.1h172.1c43.6.4,75.8,8.7,96.5,24.9,20.7,16.3,31.1,39.8,31.1,70.5s-5.9,37.3-17.7,51.7c-11.8,14.5-29.8,23.7-54.2,27.6v.5c27.2,3.6,47.4,13,60.9,28.1,13.4,15.2,20.1,33.5,20.1,55s-10.7,53.9-32.2,70.5c-21.4,16.6-53.6,24.9-96.5,24.9h-180.1v.2ZM2525,206.9h67c32.9,0,49.3-12.9,49.3-38.6s-16.4-38.6-49.3-38.6h-67v77.2h0ZM2525,351.1h75.6c16.8,0,29.3-3.4,37.5-10.2,8.2-6.8,12.3-16.6,12.3-29.5s-4.1-22.1-12.3-28.7-20.7-9.9-37.5-9.9h-75.6v78.3h0Z"/>
    <path class="st1" d="M2961.4,56.8c35.7,0,66.6,7.2,92.5,21.7s45.8,35.3,59.8,62.5c13.9,27.2,20.9,59.9,20.9,98.1s-7,71-20.9,98.1c-13.9,27.2-33.9,48-59.8,62.5-25.9,14.5-56.7,21.7-92.5,21.7s-66.7-7.2-92.8-21.7-46.1-35.3-60-62.5-20.9-59.9-20.9-98.1,7-70.9,20.9-98.1c13.9-27.2,34-48,60-62.5,26.1-14.5,57-21.7,92.8-21.7ZM2961.4,129.2c-17.2,0-31.6,4.1-43.4,12.3-11.8,8.2-20.7,20.5-26.8,36.7-6.1,16.3-9.1,36.6-9.1,60.9s3,44.1,9.1,60.6c6.1,16.4,15,28.8,26.8,37s26.3,12.3,43.4,12.3,31.5-4.1,43.2-12.3c11.6-8.2,20.5-20.5,26.5-37,6.1-16.4,9.1-36.6,9.1-60.6s-3-44.6-9.1-60.9c-6.1-16.3-14.9-28.5-26.5-36.7s-26-12.3-43.2-12.3h0Z"/>
    <path class="st1" d="M3482,416h-109.9l-66.5-113.1-64.3,113.1h-104.5l120.1-178-113.1-175.9h108.8l60.6,108.3,61.1-108.3h100.3l-113.1,173.2,120.6,180.7h-.1Z"/>
  </g>
</svg>