<?xml version="1.0" encoding="utf-8"?>
<!-- Generator: Adobe Illustrator 27.7.0, SVG Export Plug-In . SVG Version: 6.00 Build 0)  -->
<svg version="1.1" id="Ebene_1" xmlns="http://www.w3.org/2000/svg" xmlns:xlink="http://www.w3.org/1999/xlink" x="0px" y="0px"
	 viewBox="0 0 67.3 47.3" style="enable-background:new 0 0 67.3 47.3;" xml:space="preserve">
<style type="text/css">
	.st0{fill:#E74410;}
</style>
<path class="st0" d="M40.6,39h1.8v8.1h-1.5c-0.5-0.9-1.1-1.9-1.7-2.8c-0.6-0.9-1.3-1.8-1.9-2.6V47h-1.8v-8H37c0.3,0.3,0.5,0.6,0.9,1
	c0.3,0.4,0.6,0.8,1,1.2c0.3,0.4,0.6,0.9,1,1.3c0.3,0.5,0.6,0.9,0.9,1.3V39H40.6z M31.7,47.2h1.8V39h-1.8V47.2z M23.8,40.6h2.5v6.6
	h1.8v-6.6h2.5V39h-6.7L23.8,40.6L23.8,40.6z M22.7,43.2c-0.2-0.2-0.5-0.4-0.8-0.5c-0.3-0.2-0.7-0.3-1.1-0.5
	c-0.2-0.1-0.4-0.1-0.6-0.2c-0.2-0.1-0.3-0.1-0.4-0.2c-0.1-0.1-0.2-0.2-0.3-0.3c-0.1-0.1-0.1-0.2-0.1-0.4s0.1-0.4,0.3-0.6
	c0.2-0.1,0.5-0.2,0.9-0.2s0.7,0,1,0.1s0.5,0.2,0.8,0.3l0.5-1.4c-0.3-0.1-0.6-0.3-1-0.4c-0.4-0.1-0.9-0.2-1.4-0.2s-0.9,0.1-1.2,0.2
	c-0.4,0.1-0.7,0.3-0.9,0.5c-0.3,0.2-0.5,0.5-0.6,0.8s-0.2,0.6-0.2,1s0.1,0.7,0.2,1s0.3,0.5,0.5,0.7s0.4,0.3,0.7,0.5
	c0.3,0.1,0.5,0.2,0.8,0.3c0.6,0.2,1,0.4,1.3,0.6c0.2,0.2,0.4,0.4,0.4,0.7c0,0.1,0,0.2-0.1,0.3c0,0.1-0.1,0.2-0.2,0.3
	s-0.2,0.1-0.4,0.2c-0.2,0-0.4,0.1-0.6,0.1c-0.5,0-1-0.1-1.3-0.2c-0.4-0.1-0.7-0.2-0.9-0.4l-0.5,1.5c0.1,0.1,0.2,0.1,0.4,0.2
	c0.2,0.1,0.4,0.1,0.6,0.2c0.2,0.1,0.5,0.1,0.8,0.2c0.3,0,0.6,0.1,1,0.1c1.1,0,1.9-0.2,2.4-0.6c0.5-0.4,0.8-1,0.8-1.8
	c0-0.4-0.1-0.7-0.2-1C23.1,43.7,22.9,43.4,22.7,43.2z M4.9,42.1H1.8V39H0v8.1h1.8v-3.5h3.1v3.5h1.8V39H4.9V42.1z M49,45.7
	c-0.1,0-0.2,0-0.4,0c-0.1,0-0.3,0-0.5,0c-0.4,0-0.7-0.1-1-0.2c-0.3-0.1-0.5-0.3-0.7-0.5s-0.3-0.5-0.4-0.8c-0.1-0.3-0.1-0.7-0.1-1.1
	c0-0.8,0.2-1.5,0.6-1.9c0.4-0.5,1-0.7,1.8-0.7c0.4,0,0.7,0,1.1,0.1c0.3,0.1,0.6,0.2,0.9,0.3l0.5-1.5c-0.1,0-0.2-0.1-0.3-0.2
	c-0.1-0.1-0.3-0.1-0.6-0.2c-0.3,0-0.5,0-0.9-0.1c-0.3-0.1-0.7-0.1-1-0.1c-0.6,0-1.1,0.1-1.6,0.3s-0.9,0.5-1.3,0.8
	c-0.4,0.4-0.7,0.8-0.9,1.3s-0.3,1.1-0.3,1.8s0.1,1.3,0.3,1.8s0.5,1,0.8,1.3c0.4,0.4,0.8,0.6,1.3,0.8s1.1,0.3,1.7,0.3
	c0.7,0,1.3,0,1.8-0.1s0.8-0.2,1.1-0.3v-4H49V45.7z M16.1,41.2c0.2,0.5,0.3,1.1,0.3,1.8s-0.1,1.3-0.3,1.8c-0.2,0.5-0.5,1-0.9,1.3
	c-0.4,0.4-0.8,0.6-1.3,0.8s-1,0.3-1.6,0.3s-1.1-0.1-1.6-0.3s-0.9-0.5-1.3-0.8c-0.4-0.4-0.7-0.8-0.9-1.3S8.2,43.7,8.2,43
	s0.1-1.3,0.3-1.8s0.5-1,0.9-1.3c0.4-0.4,0.8-0.6,1.3-0.8s1-0.3,1.5-0.3c0.6,0,1.1,0.1,1.6,0.3s0.9,0.5,1.3,0.8
	C15.6,40.3,15.8,40.7,16.1,41.2z M14.5,43.1c0-0.4,0-0.8-0.1-1.1s-0.2-0.6-0.4-0.8s-0.4-0.4-0.7-0.5s-0.6-0.2-0.9-0.2
	c-0.3,0-0.6,0.1-0.9,0.2c-0.3,0.1-0.5,0.3-0.7,0.5s-0.3,0.5-0.4,0.8c-0.1,0.3-0.1,0.7-0.1,1.1c0,0.4,0,0.8,0.1,1.1s0.2,0.6,0.4,0.8
	s0.4,0.4,0.7,0.5s0.6,0.2,0.9,0.2c0.3,0,0.6-0.1,0.9-0.2c0.3-0.1,0.5-0.3,0.7-0.5s0.3-0.5,0.4-0.8C14.4,43.8,14.5,43.5,14.5,43.1z
	 M19.2,33.6c0.6,0,1.1-0.1,1.5-0.2c0.4-0.2,0.8-0.4,1-0.7c0.3-0.3,0.5-0.6,0.6-1c0.1-0.4,0.2-0.8,0.2-1.3v-5.1h-1.8v4.9
	c0,0.7-0.1,1.1-0.4,1.4C20,31.8,19.6,32,19.2,32c-0.2,0-0.4,0-0.6-0.1s-0.3-0.2-0.5-0.3c-0.1-0.1-0.2-0.3-0.3-0.6
	c-0.1-0.2-0.1-0.5-0.1-0.8v-4.9h-1.8v5.1c0,0.5,0.1,0.9,0.2,1.3c0.1,0.4,0.3,0.7,0.6,1c0.3,0.3,0.6,0.5,1,0.7
	C18.1,33.5,18.6,33.6,19.2,33.6z M14.4,26.8v-1.5H8.9v8.1h5.8l0,0v-1.5h-3.9v-2H14v-1.5h-3.3v-1.6C10.7,26.8,14.4,26.8,14.4,26.8z
	 M26,33.4h1.8v-6.6h2.5v-1.6h-6.7v1.6H26V33.4z M5.2,30.1c-0.3-0.4-0.6-0.9-0.9-1.3c-0.3-0.5-0.6-0.9-1-1.3c-0.3-0.4-0.6-0.8-1-1.2
	c-0.3-0.4-0.6-0.7-0.9-1H0v8.1h1.8v-5.3c0.7,0.8,1.3,1.7,1.9,2.6s1.2,1.8,1.7,2.8H7v-8.1H5.2V30.1z M40.8,33.4h-1.9
	c0.3-0.9,0.6-1.7,0.9-2.4c0.3-0.7,0.5-1.4,0.8-2.1s0.5-1.3,0.8-1.9s0.5-1.2,0.8-1.7h1.7c0.3,0.6,0.5,1.1,0.8,1.7s0.5,1.2,0.8,1.9
	c0.3,0.7,0.5,1.4,0.8,2.1s0.6,1.6,0.9,2.4h-2c-0.1-0.3-0.2-0.6-0.3-0.9c-0.1-0.3-0.2-0.6-0.3-0.9h-3.2c-0.1,0.3-0.2,0.6-0.3,0.9
	S40.9,33.1,40.8,33.4z M41.8,30.2h2.3c-0.1-0.4-0.2-0.7-0.4-1c-0.1-0.3-0.2-0.6-0.3-0.9s-0.2-0.5-0.3-0.7s-0.1-0.4-0.2-0.5
	c0,0.1-0.1,0.3-0.2,0.5c-0.1,0.2-0.2,0.4-0.3,0.7c-0.1,0.3-0.2,0.6-0.3,0.9S41.9,29.8,41.8,30.2z M47.1,33.4L47.1,33.4L47.1,33.4
	L47.1,33.4z M50,25.3h-1.8v8.1h5.4v-1.6H50V25.3z M56.6,29.9h3.2v-1.5h-3.2v-1.6h3.7v-1.5h-5.5v8.1h5.8l0,0v-1.5h-3.9L56.6,29.9
	L56.6,29.9z M35.7,32.6c-0.2-0.3-0.3-0.5-0.5-0.8s-0.3-0.5-0.5-0.7s-0.3-0.4-0.5-0.6h-0.9v3h-1.8v-8c0.4-0.1,0.8-0.1,1.2-0.2
	c0.4,0,0.8,0,1.1,0c1.2,0,2.2,0.2,2.8,0.7c0.7,0.4,1,1.1,1,2c0,0.6-0.1,1-0.4,1.4c-0.3,0.4-0.6,0.6-1.1,0.8c0.2,0.2,0.3,0.4,0.5,0.7
	c0.2,0.3,0.4,0.5,0.5,0.8c0.2,0.3,0.3,0.6,0.5,0.9s0.3,0.6,0.5,0.9h-2C36,33.1,35.8,32.9,35.7,32.6z M35.3,28.7
	c0.3-0.2,0.4-0.5,0.4-0.9s-0.2-0.7-0.5-0.8c-0.3-0.2-0.7-0.3-1.3-0.3c-0.1,0-0.3,0-0.4,0c-0.1,0-0.2,0-0.3,0V29h0.5
	C34.5,29,35,28.9,35.3,28.7z M67.2,30.2c-0.1-0.3-0.3-0.5-0.5-0.7s-0.5-0.4-0.8-0.5c-0.3-0.2-0.7-0.3-1.1-0.5
	c-0.2-0.1-0.4-0.1-0.6-0.2c-0.2-0.1-0.3-0.1-0.4-0.2c-0.1-0.1-0.2-0.2-0.3-0.3c-0.1-0.1-0.1-0.2-0.1-0.4c0-0.2,0.1-0.4,0.3-0.6
	c0.2-0.1,0.5-0.2,0.9-0.2s0.7,0,1,0.1s0.5,0.2,0.8,0.3l0.5-1.4c-0.3-0.1-0.6-0.3-1-0.4S65,25,64.5,25s-0.9,0.1-1.2,0.2
	c-0.4,0.1-0.7,0.3-0.9,0.5c-0.3,0.2-0.5,0.5-0.6,0.8s-0.2,0.6-0.2,1s0.1,0.7,0.2,1c0.1,0.3,0.3,0.5,0.5,0.7s0.4,0.3,0.7,0.5
	c0.3,0.1,0.5,0.2,0.8,0.3c0.6,0.2,1,0.4,1.3,0.6c0.2,0.2,0.4,0.4,0.4,0.7c0,0.1,0,0.2-0.1,0.3c0,0.1-0.1,0.2-0.2,0.3
	C65.1,32,65,32,64.8,32.1c-0.2,0-0.4,0.1-0.6,0.1c-0.5,0-1-0.1-1.3-0.2c-0.4-0.1-0.7-0.2-0.9-0.4l-0.5,1.5c0.1,0.1,0.2,0.1,0.4,0.2
	c0.2,0.1,0.4,0.1,0.6,0.2c0.2,0.1,0.5,0.1,0.8,0.2c0.3,0,0.6,0.1,1,0.1c1.1,0,1.9-0.2,2.4-0.6c0.5-0.4,0.8-1,0.8-1.8
	C67.3,30.8,67.3,30.4,67.2,30.2z M1.8,16.2c0.3,0.2,0.6,0.5,0.8,0.8c0.3,0.3,0.6,0.6,0.8,0.9c0.3,0.3,0.5,0.6,0.7,0.9
	c0.2,0.3,0.4,0.6,0.6,0.9H7c-0.6-0.9-1.1-1.7-1.7-2.5c-0.6-0.7-1.2-1.4-1.9-1.9C4,14.6,4.6,14,5.1,13.4c0.6-0.6,1.1-1.2,1.7-1.9H4.6
	c-0.4,0.5-0.9,1-1.3,1.5c-0.5,0.5-1,1.1-1.4,1.6v-3.1H0v8.1h1.8V16.2z M16.5,11.5h-1.8v8.1h1.8V11.5z M13.5,18.1H9.9v-6.6H8v8.1h5.4
	v-1.5H13.5z M33.7,17.9h-3.2c-0.1,0.3-0.2,0.6-0.3,0.9c-0.1,0.3-0.2,0.6-0.3,0.9H28c0.3-0.9,0.6-1.7,0.9-2.4
	c0.3-0.7,0.5-1.4,0.8-2.1c0.3-0.7,0.5-1.3,0.8-1.9c0.3-0.6,0.5-1.2,0.8-1.7H33c0.3,0.6,0.5,1.1,0.8,1.7c0.3,0.6,0.5,1.2,0.8,1.9
	s0.5,1.4,0.8,2.1s0.6,1.6,0.9,2.4l0,0h-2c-0.1-0.3-0.2-0.6-0.3-0.9S33.8,18.2,33.7,17.9z M33.3,16.4c-0.1-0.4-0.2-0.7-0.4-1
	c-0.1-0.3-0.2-0.6-0.3-0.9c-0.1-0.3-0.2-0.5-0.3-0.7s-0.1-0.4-0.2-0.5c0,0.1-0.1,0.3-0.2,0.5s-0.2,0.4-0.3,0.7
	c-0.1,0.3-0.2,0.6-0.3,0.9c-0.1,0.3-0.3,0.7-0.4,1H33.3z M24.2,16.5c0.2-0.4,0.3-0.8,0.5-1.2s0.3-0.8,0.5-1.1
	c0.1,0.9,0.1,1.9,0.2,2.8c0,0.9,0.1,1.8,0.1,2.6h1.8c0-0.6-0.1-1.3-0.1-2.1c0-0.7-0.1-1.5-0.1-2.2c-0.1-0.7-0.1-1.4-0.2-2.1
	s-0.1-1.3-0.2-1.8H25c-0.1,0.3-0.3,0.6-0.5,1s-0.4,0.8-0.6,1.2s-0.4,0.9-0.6,1.4s-0.4,0.9-0.6,1.3c-0.2-0.4-0.4-0.8-0.6-1.3
	s-0.4-0.9-0.6-1.4c-0.2-0.4-0.4-0.9-0.6-1.2c-0.2-0.4-0.3-0.7-0.5-1h-1.7c-0.1,0.5-0.2,1.1-0.2,1.8c-0.1,0.7-0.1,1.4-0.2,2.1
	s-0.1,1.5-0.1,2.2s-0.1,1.4-0.1,2.1h1.8c0-0.8,0.1-1.7,0.1-2.6s0.1-1.9,0.2-2.8c0.1,0.3,0.3,0.7,0.5,1.1c0.2,0.4,0.3,0.8,0.5,1.2
	s0.3,0.8,0.5,1.1c0.2,0.4,0.3,0.7,0.4,0.9h1.3c0.1-0.3,0.2-0.6,0.4-0.9C23.9,17.3,24,16.9,24.2,16.5z M54.4,2.5
	c0,2.6-0.2,6.4-2.1,8.3c-0.8,0.8-2,1.2-3.3,1.2s-2.6-0.4-3.4-1.1c-1.7,2.7-2.2,5.9-2.2,8.6c0,0.3-0.2,0.5-0.5,0.5s-0.5-0.2-0.5-0.5
	c0-4.8-0.8-7.9-1.8-10C40,9.7,39,9.9,38,9.9c-1.2,0-2.5-0.4-3.3-1.2c-1.9-1.9-2.1-5.6-2.1-8.3c0-0.3,0.2-0.5,0.5-0.5
	c2.6,0,6.4,0.2,8.3,2.1c1.6,1.6,1.4,5,0.1,6.5c0.7,1.4,1.3,3.1,1.6,5.5c0.4-1.5,1-2.9,1.9-4.3c-0.9-1.7-0.8-4.4,0.6-5.8
	c2-1.7,5.7-1.9,8.3-1.9C54.2,2,54.4,2.2,54.4,2.5z M40.2,8.4c-1.1-1.9-2.3-2.7-3-3.2C37,5,36.8,4.9,36.7,4.8c-0.2-0.2-0.2-0.5,0-0.7
	c0.2-0.2,0.5-0.2,0.7,0c0.1,0.1,0.2,0.1,0.4,0.3c0.7,0.5,2,1.4,3.2,3.3c0.8-1.3,0.8-3.7-0.3-4.8C39.1,1.3,36,1,33.6,1
	c0,2.4,0.3,5.5,1.8,7.1C36.5,9.2,39,9.1,40.2,8.4z M53.4,3c-2.4,0-5.5,0.3-7.1,1.8c-0.9,0.9-1.1,2.9-0.6,4.2c1-1.2,2.3-2.2,3.9-3
	c0.2-0.1,0.6,0,0.7,0.2c0.1,0.2,0.1,0.5-0.2,0.6H50c-1.6,0.8-2.9,1.8-3.8,3c0,0,0,0.1,0.1,0.1c1.1,1.1,4,1.2,5.2,0
	C53.1,8.5,53.4,5.4,53.4,3z"/>
</svg>
