<?xml version="1.0" encoding="utf-8"?>
<!-- Generator: Adobe Illustrator 27.8.0, SVG Export Plug-In . SVG Version: 6.00 Build 0)  -->
<svg version="1.1" id="Ebene_1" xmlns="http://www.w3.org/2000/svg" xmlns:xlink="http://www.w3.org/1999/xlink" x="0px" y="0px"
	 viewBox="0 0 169.8 118.8" style="enable-background:new 0 0 169.8 118.8;" xml:space="preserve">
<style type="text/css">
	.st0{fill:#115055;}
</style>
<path class="st0" d="M12.9,97h4.8v21.4h-4.8v-9.1H4.8v9.1H0V97h4.8v8.2h8.1C12.9,105.2,12.9,97,12.9,97z M59.6,108
	c-0.5-0.5-1.2-1-2-1.4s-1.8-0.8-2.9-1.2c-0.5-0.2-1-0.4-1.5-0.5s-0.8-0.4-1.2-0.6c-0.3-0.2-0.6-0.5-0.8-0.7s-0.3-0.6-0.3-1
	c0-0.7,0.2-1.1,0.8-1.5c0.5-0.3,1.3-0.5,2.5-0.5c1,0,1.9,0.1,2.6,0.3c0.7,0.2,1.4,0.5,2,0.8l1.4-3.8c-0.7-0.4-1.5-0.7-2.6-1
	s-2.3-0.5-3.7-0.5c-1.2,0-2.3,0.2-3.3,0.5s-1.8,0.7-2.5,1.3c-0.7,0.5-1.2,1.2-1.6,2c-0.4,0.8-0.6,1.7-0.6,2.7s0.2,1.8,0.5,2.5
	c0.4,0.7,0.8,1.3,1.4,1.8c0.6,0.5,1.2,0.9,1.9,1.2c0.7,0.3,1.4,0.6,2.1,0.8c1.6,0.5,2.7,1,3.4,1.5s1,1,1,1.7c0,0.3-0.1,0.6-0.2,0.9
	c-0.1,0.3-0.3,0.5-0.6,0.7s-0.6,0.4-1.1,0.5s-1,0.2-1.7,0.2c-1.4,0-2.5-0.1-3.4-0.4s-1.7-0.6-2.4-0.9l-1.4,3.8
	c0.3,0.2,0.6,0.3,1.1,0.5c0.4,0.2,0.9,0.4,1.5,0.5c0.6,0.2,1.3,0.3,2,0.4c0.8,0.1,1.6,0.2,2.6,0.2c2.8,0,4.9-0.6,6.3-1.7
	s2.1-2.7,2.1-4.6c0-1-0.1-1.9-0.4-2.6C60.6,109.1,60.2,108.5,59.6,108z M62.5,101h6.4v17.3h4.8V101h6.4v-4H62.5V101z M42.2,102.8
	c0.5,1.4,0.8,3,0.8,4.8s-0.3,3.4-0.8,4.8s-1.3,2.5-2.2,3.5c-1,0.9-2.1,1.6-3.4,2.1c-1.3,0.5-2.7,0.7-4.2,0.7s-2.8-0.2-4.1-0.7
	c-1.3-0.5-2.4-1.2-3.4-2.1s-1.7-2.1-2.3-3.5c-0.5-1.4-0.8-3-0.8-4.8s0.3-3.4,0.9-4.8s1.3-2.6,2.3-3.5c1-1,2.1-1.7,3.4-2.1
	c1.3-0.5,2.6-0.7,4-0.7c1.5,0,2.8,0.2,4.1,0.7s2.4,1.2,3.4,2.1C40.8,100.2,41.6,101.4,42.2,102.8z M38,107.6c0-1-0.1-2-0.4-2.8
	c-0.3-0.9-0.6-1.6-1.1-2.2s-1.1-1.1-1.8-1.4s-1.5-0.5-2.4-0.5c-0.9,0-1.7,0.2-2.4,0.5c-0.7,0.3-1.3,0.8-1.8,1.4s-0.8,1.3-1.1,2.2
	c-0.3,0.9-0.4,1.8-0.4,2.8s0.1,2,0.4,2.8s0.6,1.6,1.1,2.2s1.1,1.1,1.8,1.4c0.7,0.3,1.5,0.5,2.4,0.5c0.9,0,1.7-0.2,2.4-0.5
	s1.3-0.8,1.8-1.4s0.8-1.3,1.1-2.2C37.9,109.6,38,108.7,38,107.6z M106.6,109.6c-0.7-1.1-1.5-2.3-2.4-3.5c-0.8-1.2-1.7-2.4-2.5-3.5
	s-1.7-2.2-2.5-3.2s-1.6-1.8-2.2-2.5h-4v21.4h4.8v-14c1.8,2.1,3.5,4.4,5.1,6.8s3.1,4.8,4.5,7.2h4V97h-4.8V109.6z M83.2,118.3H88V97
	h-4.8V118.3z M128.6,114.5c-0.3,0.1-0.6,0.1-1,0.1c-0.4,0-0.8,0-1.4,0c-1,0-1.8-0.2-2.6-0.5c-0.7-0.3-1.4-0.8-1.9-1.4
	s-0.9-1.3-1.1-2.2c-0.2-0.8-0.4-1.8-0.4-2.8c0-2.2,0.5-3.9,1.5-5.1s2.6-1.9,4.9-1.9c1,0,2,0.1,2.8,0.4s1.6,0.6,2.3,0.9l1.4-3.9
	c-0.2-0.1-0.4-0.2-0.8-0.4s-0.9-0.4-1.4-0.5c-0.6-0.2-1.3-0.3-2.1-0.5s-1.7-0.2-2.7-0.2c-1.5,0-2.9,0.2-4.2,0.7s-2.4,1.2-3.4,2.2
	s-1.7,2.1-2.3,3.5c-0.6,1.4-0.8,3-0.8,4.8s0.2,3.3,0.8,4.7s1.2,2.5,2.1,3.5s2,1.7,3.3,2.2s2.8,0.7,4.4,0.7c1.9,0,3.4-0.1,4.7-0.4
	s2.2-0.5,2.8-0.7V107h-4.8v7.5H128.6z M17.4,87.8h4.8V66.4h-4.8C17.4,66.4,17.4,87.8,17.4,87.8z M84.1,70.4v-4H69.7v21.4h15.1v-4
	H74.5v-5.2H83v-4h-8.5v-4.2C74.5,70.4,84.1,70.4,84.1,70.4z M64.8,87.8V66.4H60v8.2h-8.1v-8.2h-4.8v21.4h4.8v-9.1H60v9.1H64.8z
	 M14.3,83.6H4.8l0,0V66.4H0v21.4h14.3V83.6z M100.5,86.5c1.4-1.1,2.1-2.6,2.1-4.6c0-1-0.1-1.9-0.4-2.6s-0.7-1.4-1.2-1.9
	s-1.2-1-2.1-1.4c-0.8-0.4-1.8-0.8-2.9-1.2c-0.5-0.2-1-0.4-1.5-0.5c-0.4-0.2-0.8-0.4-1.2-0.6c-0.3-0.2-0.6-0.5-0.8-0.7
	c-0.2-0.3-0.3-0.6-0.3-1c0-0.7,0.2-1.2,0.8-1.5c0.5-0.3,1.3-0.5,2.5-0.5c1,0,1.9,0.1,2.6,0.4c0.7,0.2,1.4,0.5,2,0.8l1.4-3.8
	c-0.7-0.4-1.5-0.7-2.6-1s-2.3-0.5-3.7-0.5c-1.2,0-2.3,0.1-3.3,0.5c-1,0.3-1.8,0.7-2.5,1.3s-1.2,1.2-1.6,2s-0.6,1.7-0.6,2.7
	s0.2,1.8,0.5,2.5s0.8,1.3,1.4,1.8s1.2,0.9,1.9,1.2c0.7,0.3,1.4,0.6,2.1,0.9c1.6,0.5,2.7,1,3.4,1.5c0.7,0.5,1,1,1,1.7
	c0,0.3,0,0.6-0.1,0.9s-0.3,0.5-0.6,0.7c-0.3,0.2-0.6,0.3-1.1,0.5c-0.4,0.1-1,0.2-1.7,0.2c-1.3,0-2.5-0.1-3.4-0.4s-1.7-0.6-2.4-0.9
	l-1.4,3.8c0.3,0.2,0.6,0.3,1.1,0.5s0.9,0.4,1.5,0.5c0.6,0.2,1.3,0.3,2,0.4c0.8,0.1,1.6,0.2,2.6,0.2C97,88.2,99.1,87.6,100.5,86.5z
	 M41.8,83.1c-0.3,0.1-0.7,0.3-1.1,0.4c-0.4,0.1-0.9,0.2-1.5,0.3s-1.2,0.1-1.9,0.1c-1.1,0-2.1-0.2-2.8-0.5c-0.8-0.4-1.4-0.8-1.9-1.5
	c-0.5-0.6-0.8-1.3-1-2.2c-0.2-0.9-0.3-1.8-0.3-2.8c0-1.2,0.2-2.3,0.5-3.2c0.3-0.9,0.8-1.6,1.3-2.1s1.2-0.9,1.9-1.2
	c0.7-0.2,1.4-0.4,2.2-0.4c1.1,0,2.1,0.1,3,0.4c0.9,0.2,1.6,0.5,2.3,0.9l1.4-3.9c-0.2-0.1-0.4-0.2-0.8-0.4c-0.4-0.2-0.8-0.4-1.4-0.5
	c-0.6-0.2-1.2-0.3-1.9-0.5s-1.6-0.2-2.5-0.2c-1.6,0-3,0.2-4.4,0.7c-1.3,0.5-2.5,1.2-3.5,2.2s-1.7,2.1-2.3,3.5
	c-0.6,1.4-0.8,3-0.8,4.7c0,3.6,0.9,6.3,2.7,8.2c1.8,1.9,4.5,2.9,7.9,2.9c1.6,0,3.1-0.2,4.3-0.5s2.2-0.7,2.9-1.1l-1.3-3.9
	C42.4,82.8,42.1,83,41.8,83.1z M68.7,52.5c0.3-1,0.5-2.1,0.5-3.3V35.8h-3v13.1c0,1.1-0.1,2-0.4,2.8s-0.6,1.4-1,1.9
	c-0.5,0.5-1,0.9-1.6,1.1C62.5,54.9,61.8,55,61,55c-1.5,0-2.8-0.5-3.7-1.4c-1-1-1.4-2.5-1.4-4.7V35.8h-3v13.4c0,1.2,0.2,2.3,0.5,3.3
	s0.8,1.9,1.5,2.7s1.5,1.3,2.5,1.8c1,0.4,2.2,0.7,3.6,0.7c1.4,0,2.6-0.2,3.6-0.7c1-0.4,1.9-1,2.5-1.8C67.8,54.5,68.3,53.6,68.7,52.5z
	 M50,54.6H39.1v-7.4H48v-2.5h-8.9v-6.4h10v-2.6h-13v21.4H50V54.6z M87.4,54.6c0.6,1,1.1,1.8,1.6,2.6h2.5V35.8h-2.9v15.8
	c-0.7-1.1-1.5-2.3-2.4-3.7c-1-1.4-2-2.8-3-4.3c-1.1-1.5-2.2-2.9-3.3-4.2c-1.1-1.4-2.1-2.6-3.1-3.6h-2.4v21.4h2.9V40.5
	c0.6,0.7,1.2,1.4,1.9,2.3c0.7,0.9,1.4,1.8,2.1,2.8s1.4,2,2.2,3c0.7,1,1.4,2.1,2.1,3.1C86.2,52.7,86.8,53.7,87.4,54.6z M16.7,36.1
	c0.8-0.2,1.8-0.3,2.8-0.4s2-0.1,2.8-0.1c3,0,5.3,0.6,6.9,1.7c1.6,1.1,2.4,2.8,2.4,5.1c0,1.4-0.4,2.6-1.1,3.6c-0.8,1-1.9,1.8-3.3,2.2
	c0.3,0.4,0.8,1,1.2,1.6c0.5,0.7,1,1.4,1.6,2.2c0.5,0.8,1.1,1.7,1.6,2.5c0.5,0.9,1,1.7,1.3,2.6h-3.3c-0.4-0.8-0.9-1.6-1.3-2.4
	c-0.5-0.8-1-1.6-1.5-2.3s-1-1.4-1.5-2s-0.9-1.2-1.3-1.7c-0.3,0-0.5,0-0.8,0h-0.9h-2.7v8.4h-3L16.7,36.1L16.7,36.1z M19.7,46.3h2.1
	c1,0,2-0.1,2.8-0.2c0.8-0.1,1.5-0.3,2.1-0.6s1-0.7,1.3-1.2s0.5-1.2,0.5-2.1c0-0.8-0.1-1.5-0.5-2c-0.3-0.5-0.7-1-1.2-1.3
	s-1.1-0.5-1.9-0.6s-1.5-0.2-2.3-0.2c-1.3,0-2.2,0-2.9,0.1V46.3z M113.4,41.6c0.6,1.4,0.9,3,0.9,4.9c0,1.8-0.3,3.5-0.9,4.8
	c-0.6,1.4-1.4,2.5-2.4,3.4c-1.1,0.9-2.3,1.6-3.8,2s-3.1,0.7-4.8,0.7c-0.9,0-1.8,0-2.9-0.1c-1-0.1-2-0.2-2.8-0.4V36.1
	c0.8-0.2,1.8-0.3,2.8-0.4c1-0.1,2-0.1,2.9-0.1c1.8,0,3.3,0.2,4.8,0.7c1.5,0.4,2.7,1.1,3.8,2C112,39.1,112.8,40.3,113.4,41.6z
	 M111.1,46.5c0-2.6-0.7-4.6-2.1-6.1s-3.5-2.2-6.3-2.2c-0.9,0-1.5,0-2,0s-0.8,0-1,0.1v16.3c0.2,0,0.5,0,1,0.1c0.5,0,1.1,0,2,0
	c2.8,0,5-0.7,6.3-2.2C110.4,51.1,111.1,49.1,111.1,46.5z M13.1,38.4v-2.6H0.2v21.4h3v-9.8H12v-2.5H3.2v-6.4h9.9V38.4z M78.7,26.6h-5
	c0.8-2.3,1.6-4.4,2.3-6.4c0.7-2,1.4-3.8,2.1-5.5s1.4-3.4,2-4.9c0.7-1.6,1.4-3.1,2.1-4.6h4.6c0.7,1.5,1.4,3,2.1,4.6
	c0.7,1.5,1.4,3.2,2.1,4.9s1.4,3.6,2.1,5.5s1.5,4.1,2.3,6.4l0,0h-5.1c-0.2-0.8-0.5-1.5-0.8-2.3S89,22.7,88.7,22h-8.3
	c-0.3,0.8-0.5,1.6-0.8,2.3S78.9,25.8,78.7,26.6z M81.4,18.2h6.1c-0.3-0.9-0.6-1.8-1-2.7c-0.3-0.8-0.6-1.6-0.9-2.3s-0.5-1.3-0.7-1.8
	s-0.4-1-0.5-1.2c-0.1,0.3-0.3,0.7-0.5,1.3c-0.2,0.5-0.4,1.1-0.7,1.8c-0.3,0.7-0.6,1.5-0.9,2.3C82,16.3,81.7,17.2,81.4,18.2z
	 M4.8,17.5c0.7,0.6,1.5,1.2,2.2,2s1.5,1.5,2.1,2.4c0.7,0.8,1.3,1.6,1.9,2.4c0.6,0.8,1.1,1.6,1.5,2.2h5.7l0,0c-1.5-2.4-3-4.5-4.6-6.5
	s-3.2-3.7-4.9-5.1c1.6-1.6,3.2-3.2,4.6-4.8c1.5-1.6,2.9-3.3,4.4-5H12c-1.1,1.2-2.3,2.5-3.5,4S6,12,4.8,13.3v-8H0v21.4h4.8V17.5z
	 M43.3,5.2h-4.8v21.4h4.8V5.2z M52.5,19.8c0.1-2.5,0.3-4.9,0.5-7.4c0.4,0.9,0.8,1.8,1.2,2.9s0.9,2.1,1.3,3.1c0.4,1,0.9,2,1.3,3
	c0.4,1,0.8,1.8,1.1,2.5h3.4c0.3-0.7,0.6-1.5,1-2.5s0.8-2,1.3-3s0.9-2.1,1.3-3.1c0.5-1,0.9-2,1.2-2.9c0.2,2.5,0.4,5,0.5,7.4
	c0.1,2.5,0.2,4.7,0.2,6.8h4.7c-0.1-1.7-0.2-3.5-0.3-5.4c-0.1-1.9-0.2-3.8-0.4-5.7c-0.1-1.9-0.3-3.7-0.5-5.5s-0.4-3.3-0.6-4.8h-4.4
	c-0.4,0.7-0.8,1.5-1.3,2.5c-0.5,1-1,2.1-1.5,3.2c-0.5,1.2-1,2.4-1.6,3.6c-0.5,1.2-1,2.4-1.4,3.4c-0.5-1.1-0.9-2.2-1.5-3.4
	c-0.5-1.2-1-2.4-1.6-3.6c-0.5-1.2-1-2.2-1.5-3.2S54,5.9,53.6,5.2H49c-0.2,1.4-0.4,3-0.6,4.8c-0.2,1.8-0.3,3.6-0.5,5.5
	c-0.1,1.9-0.3,3.8-0.4,5.7c-0.1,1.9-0.2,3.7-0.3,5.4h4.7C52.3,24.5,52.4,22.3,52.5,19.8z M35.4,22.5h-9.5l0,0V5.2h-4.8v21.4h14.3
	V22.5z M169.8,7c0,7.5-0.6,18.2-6.1,23.7c-2.3,2.3-5.8,3.3-9.3,3.3c-3.8,0-7.5-1.2-9.6-3.3c-4.9,7.6-6.2,16.8-6.2,24.5
	c0,0.8-0.6,1.4-1.4,1.4c-0.8,0-1.4-0.6-1.4-1.4c0-13.7-2.3-22.7-5.2-28.7c-2.1,1.2-4.9,1.9-7.8,1.9c-3.5,0-7-1-9.3-3.3
	c-5.5-5.5-6.1-16.1-6.1-23.7c0-0.8,0.6-1.4,1.4-1.4c7.5,0,18.2,0.6,23.7,6.1c4.7,4.7,4.1,14.3,0.3,18.6c1.9,3.9,3.7,9,4.7,15.7
	c1.1-4.2,2.9-8.4,5.5-12.2c-2.4-4.8-2.3-12.6,1.7-16.6c5.5-5.5,16.1-6.1,23.7-6.1C169.1,5.6,169.8,6.2,169.8,7z M129.2,24
	c-3.2-5.4-6.7-7.8-8.7-9.2c-0.7-0.4-1.1-0.8-1.4-1.1c-0.5-0.5-0.5-1.5,0-2c0.6-0.5,1.5-0.5,2,0c0.2,0.2,0.6,0.4,1,0.7
	c2.1,1.4,5.8,4,9.2,9.5c2.2-3.6,2.3-10.7-0.9-13.9c-4.4-4.4-13.3-5.2-20.2-5.2c0.1,6.9,0.8,15.8,5.2,20.2
	C118.6,26.2,125.5,26.2,129.2,24z M166.9,8.5c-6.9,0.1-15.8,0.8-20.2,5.2c-2.7,2.7-3,8.2-1.7,12c2.8-3.3,6.5-6.2,11.2-8.4
	c0.7-0.3,1.7-0.1,2,0.6s0.2,1.5-0.5,1.8l-0.2,0.1c-4.7,2.2-8.2,5.2-10.9,8.6c0.1,0.1,0.2,0.2,0.2,0.3c3,3,11.5,3.5,15,0
	C166.1,24.3,166.8,15.3,166.9,8.5z"/>
</svg>
